<svg xmlns="http://www.w3.org/2000/svg" xmlns:xlink="http://www.w3.org/1999/xlink" contentStyleType="text/css" height="955px" preserveAspectRatio="none" style="width:352px;height:955px;background:#FFFFFF;" version="1.1" viewBox="0 0 352 955" width="352px" zoomAndPan="magnify"><defs/><g><rect fill="none" height="23.9414" style="stroke:none;stroke-width:1.0;" width="319.5728" x="15" y="13.0176"/><ellipse cx="106.5176" cy="51.959" fill="#222222" rx="10" ry="10" style="stroke:#222222;stroke-width:1.0;"/><rect fill="#F1F1F1" height="35.9609" rx="12.5" ry="12.5" style="stroke:#181818;stroke-width:0.5;" width="77.3574" x="67.8389" y="81.959"/><text fill="#000000" font-family="sans-serif" font-size="12" lengthAdjust="spacing" textLength="57.3574" x="77.8389" y="104.9082">onCreate()</text><rect fill="#F1F1F1" height="35.9609" rx="12.5" ry="12.5" style="stroke:#181818;stroke-width:0.5;" width="66.6816" x="73.1768" y="137.9199"/><text fill="#000000" font-family="sans-serif" font-size="12" lengthAdjust="spacing" textLength="46.6816" x="83.1768" y="160.8691">onStart()</text><rect fill="#F1F1F1" height="35.9609" rx="12.5" ry="12.5" style="stroke:#181818;stroke-width:0.5;" width="86.0234" x="63.5059" y="193.8809"/><text fill="#000000" font-family="sans-serif" font-size="12" lengthAdjust="spacing" textLength="66.0234" x="73.5059" y="216.8301">onResume()</text><rect fill="#F1F1F1" height="35.9609" rx="12.5" ry="12.5" style="stroke:#181818;stroke-width:0.5;" width="99.377" x="56.8291" y="249.8418"/><text fill="#000000" font-family="sans-serif" font-size="12" lengthAdjust="spacing" textLength="79.377" x="66.8291" y="272.791">Click on button</text><rect fill="#F1F1F1" height="35.9609" rx="12.5" ry="12.5" style="stroke:#181818;stroke-width:0.5;" width="75.3652" x="68.835" y="305.8027"/><text fill="#000000" font-family="sans-serif" font-size="12" lengthAdjust="spacing" textLength="55.3652" x="78.835" y="328.752">onPause()</text><rect fill="#F1F1F1" height="35.9609" rx="12.5" ry="12.5" style="stroke:#181818;stroke-width:0.5;" width="66.0254" x="73.5049" y="529.6465"/><text fill="#000000" font-family="sans-serif" font-size="12" lengthAdjust="spacing" textLength="46.0254" x="83.5049" y="552.5957">onStop()</text><rect fill="#F1F1F1" height="35.9609" rx="12.5" ry="12.5" style="stroke:#181818;stroke-width:0.5;" width="66.6816" x="73.1768" y="697.5293"/><text fill="#000000" font-family="sans-serif" font-size="12" lengthAdjust="spacing" textLength="46.6816" x="83.1768" y="720.4785">onStart()</text><rect fill="#F1F1F1" height="35.9609" rx="12.5" ry="12.5" style="stroke:#181818;stroke-width:0.5;" width="86.0234" x="63.5059" y="753.4902"/><text fill="#000000" font-family="sans-serif" font-size="12" lengthAdjust="spacing" textLength="66.0234" x="73.5059" y="776.4395">onResume()</text><line style="stroke:#000000;stroke-width:1.5;" x1="15" x2="15" y1="13.0176" y2="943.373"/><rect fill="#F1F1F1" height="35.9609" rx="12.5" ry="12.5" style="stroke:#181818;stroke-width:0.5;" width="77.3574" x="226.875" y="361.7637"/><text fill="#000000" font-family="sans-serif" font-size="12" lengthAdjust="spacing" textLength="57.3574" x="236.875" y="384.7129">onCreate()</text><rect fill="#F1F1F1" height="35.9609" rx="12.5" ry="12.5" style="stroke:#181818;stroke-width:0.5;" width="66.6816" x="232.2129" y="417.7246"/><text fill="#000000" font-family="sans-serif" font-size="12" lengthAdjust="spacing" textLength="46.6816" x="242.2129" y="440.6738">onStart()</text><rect fill="#F1F1F1" height="35.9609" rx="12.5" ry="12.5" style="stroke:#181818;stroke-width:0.5;" width="86.0234" x="222.542" y="473.6855"/><text fill="#000000" font-family="sans-serif" font-size="12" lengthAdjust="spacing" textLength="66.0234" x="232.542" y="496.6348">onResume()</text><rect fill="#F1F1F1" height="35.9609" rx="12.5" ry="12.5" style="stroke:#181818;stroke-width:0.5;" width="123.4004" x="203.8535" y="585.6074"/><text fill="#000000" font-family="sans-serif" font-size="12" lengthAdjust="spacing" textLength="103.4004" x="213.8535" y="608.5566">Put name and save</text><rect fill="#F1F1F1" height="35.9609" rx="12.5" ry="12.5" style="stroke:#181818;stroke-width:0.5;" width="75.3652" x="227.8711" y="641.5684"/><text fill="#000000" font-family="sans-serif" font-size="12" lengthAdjust="spacing" textLength="55.3652" x="237.8711" y="664.5176">onPause()</text><rect fill="#F1F1F1" height="35.9609" rx="12.5" ry="12.5" style="stroke:#181818;stroke-width:0.5;" width="66.0254" x="232.541" y="809.4512"/><text fill="#000000" font-family="sans-serif" font-size="12" lengthAdjust="spacing" textLength="46.0254" x="242.541" y="832.4004">onStop()</text><rect fill="#F1F1F1" height="35.9609" rx="12.5" ry="12.5" style="stroke:#181818;stroke-width:0.5;" width="82.6836" x="224.2119" y="865.4121"/><text fill="#000000" font-family="sans-serif" font-size="12" lengthAdjust="spacing" textLength="62.6836" x="234.2119" y="888.3613">onDestroy()</text><ellipse cx="265.5537" cy="932.373" fill="none" rx="11" ry="11" style="stroke:#222222;stroke-width:1.0;"/><ellipse cx="265.5537" cy="932.373" fill="#222222" rx="6" ry="6" style="stroke:#222222;stroke-width:1.0;"/><line style="stroke:#000000;stroke-width:1.5;" x1="196.0352" x2="196.0352" y1="13.0176" y2="943.373"/><line style="stroke:#000000;stroke-width:1.5;" x1="333.0723" x2="333.0723" y1="13.0176" y2="943.373"/><line style="stroke:#181818;stroke-width:1.0;" x1="106.5176" x2="106.5176" y1="61.959" y2="81.959"/><polygon fill="#181818" points="102.5176,71.959,106.5176,81.959,110.5176,71.959,106.5176,75.959" style="stroke:#181818;stroke-width:1.0;"/><line style="stroke:#181818;stroke-width:1.0;" x1="106.5176" x2="106.5176" y1="117.9199" y2="137.9199"/><polygon fill="#181818" points="102.5176,127.9199,106.5176,137.9199,110.5176,127.9199,106.5176,131.9199" style="stroke:#181818;stroke-width:1.0;"/><line style="stroke:#181818;stroke-width:1.0;" x1="106.5176" x2="106.5176" y1="173.8809" y2="193.8809"/><polygon fill="#181818" points="102.5176,183.8809,106.5176,193.8809,110.5176,183.8809,106.5176,187.8809" style="stroke:#181818;stroke-width:1.0;"/><line style="stroke:#181818;stroke-width:1.0;" x1="106.5176" x2="106.5176" y1="229.8418" y2="249.8418"/><polygon fill="#181818" points="102.5176,239.8418,106.5176,249.8418,110.5176,239.8418,106.5176,243.8418" style="stroke:#181818;stroke-width:1.0;"/><line style="stroke:#181818;stroke-width:1.0;" x1="106.5176" x2="106.5176" y1="285.8027" y2="305.8027"/><polygon fill="#181818" points="102.5176,295.8027,106.5176,305.8027,110.5176,295.8027,106.5176,299.8027" style="stroke:#181818;stroke-width:1.0;"/><line style="stroke:#181818;stroke-width:1.0;" x1="106.5176" x2="106.5176" y1="733.4902" y2="753.4902"/><polygon fill="#181818" points="102.5176,743.4902,106.5176,753.4902,110.5176,743.4902,106.5176,747.4902" style="stroke:#181818;stroke-width:1.0;"/><line style="stroke:#181818;stroke-width:1.0;" x1="265.5537" x2="265.5537" y1="397.7246" y2="417.7246"/><polygon fill="#181818" points="261.5537,407.7246,265.5537,417.7246,269.5537,407.7246,265.5537,411.7246" style="stroke:#181818;stroke-width:1.0;"/><line style="stroke:#181818;stroke-width:1.0;" x1="265.5537" x2="265.5537" y1="453.6855" y2="473.6855"/><polygon fill="#181818" points="261.5537,463.6855,265.5537,473.6855,269.5537,463.6855,265.5537,467.6855" style="stroke:#181818;stroke-width:1.0;"/><line style="stroke:#181818;stroke-width:1.0;" x1="265.5537" x2="265.5537" y1="621.5684" y2="641.5684"/><polygon fill="#181818" points="261.5537,631.5684,265.5537,641.5684,269.5537,631.5684,265.5537,635.5684" style="stroke:#181818;stroke-width:1.0;"/><line style="stroke:#181818;stroke-width:1.0;" x1="265.5537" x2="265.5537" y1="845.4121" y2="865.4121"/><polygon fill="#181818" points="261.5537,855.4121,265.5537,865.4121,269.5537,855.4121,265.5537,859.4121" style="stroke:#181818;stroke-width:1.0;"/><line style="stroke:#181818;stroke-width:1.0;" x1="265.5537" x2="265.5537" y1="901.373" y2="921.373"/><polygon fill="#181818" points="261.5537,911.373,265.5537,921.373,269.5537,911.373,265.5537,915.373" style="stroke:#181818;stroke-width:1.0;"/><line style="stroke:#181818;stroke-width:1.0;" x1="106.5176" x2="106.5176" y1="341.7637" y2="346.7637"/><line style="stroke:#181818;stroke-width:1.0;" x1="106.5176" x2="265.5537" y1="346.7637" y2="346.7637"/><line style="stroke:#181818;stroke-width:1.0;" x1="265.5537" x2="265.5537" y1="346.7637" y2="361.7637"/><polygon fill="#181818" points="261.5537,351.7637,265.5537,361.7637,269.5537,351.7637,265.5537,355.7637" style="stroke:#181818;stroke-width:1.0;"/><line style="stroke:#181818;stroke-width:1.0;" x1="265.5537" x2="265.5537" y1="509.6465" y2="514.6465"/><line style="stroke:#181818;stroke-width:1.0;" x1="265.5537" x2="106.5176" y1="514.6465" y2="514.6465"/><line style="stroke:#181818;stroke-width:1.0;" x1="106.5176" x2="106.5176" y1="514.6465" y2="529.6465"/><polygon fill="#181818" points="102.5176,519.6465,106.5176,529.6465,110.5176,519.6465,106.5176,523.6465" style="stroke:#181818;stroke-width:1.0;"/><line style="stroke:#181818;stroke-width:1.0;" x1="106.5176" x2="106.5176" y1="565.6074" y2="570.6074"/><line style="stroke:#181818;stroke-width:1.0;" x1="106.5176" x2="265.5537" y1="570.6074" y2="570.6074"/><line style="stroke:#181818;stroke-width:1.0;" x1="265.5537" x2="265.5537" y1="570.6074" y2="585.6074"/><polygon fill="#181818" points="261.5537,575.6074,265.5537,585.6074,269.5537,575.6074,265.5537,579.6074" style="stroke:#181818;stroke-width:1.0;"/><line style="stroke:#181818;stroke-width:1.0;" x1="265.5537" x2="265.5537" y1="677.5293" y2="682.5293"/><line style="stroke:#181818;stroke-width:1.0;" x1="265.5537" x2="106.5176" y1="682.5293" y2="682.5293"/><line style="stroke:#181818;stroke-width:1.0;" x1="106.5176" x2="106.5176" y1="682.5293" y2="697.5293"/><polygon fill="#181818" points="102.5176,687.5293,106.5176,697.5293,110.5176,687.5293,106.5176,691.5293" style="stroke:#181818;stroke-width:1.0;"/><line style="stroke:#181818;stroke-width:1.0;" x1="106.5176" x2="106.5176" y1="789.4512" y2="794.4512"/><line style="stroke:#181818;stroke-width:1.0;" x1="106.5176" x2="265.5537" y1="794.4512" y2="794.4512"/><line style="stroke:#181818;stroke-width:1.0;" x1="265.5537" x2="265.5537" y1="794.4512" y2="809.4512"/><polygon fill="#181818" points="261.5537,799.4512,265.5537,809.4512,269.5537,799.4512,265.5537,803.4512" style="stroke:#181818;stroke-width:1.0;"/><text fill="#000000" font-family="sans-serif" font-size="18" lengthAdjust="spacing" textLength="171.0352" x="20" y="32.4414">MainActivityWelcome</text><text fill="#000000" font-family="sans-serif" font-size="18" lengthAdjust="spacing" textLength="127.0371" x="201.0352" y="32.4414">MainActivityEdit</text><!--SRC=[ZOwx3i8m34NtV4L6-0MOK654gc1WDgc7YCP6iLEfKZwU9Zm44g_jFgphaxVWQUNK3rx70_QE0sOZ2b7DWgc928gp-RAOVKblUeUImhLeUkzEbiaUaofJhLj8KjlylB_flEO_P_DRi7hEvq_BRL9B4D02TLPWm2ymhvi_4Hxiz_-JNADevB4ucL9ZBW00]--></g></svg>